:SAMPLES-PER-SECOND 30
:FULLY-SPECIFIED
:DEGREES
592
root  -22.3941 14.9701 -35.7263 -38.272 -42.8693 -27.1943
Spine  0.571733 -14.2355 6.14497
Spine1  -1.52466 -27.3038 16.0521
Neck  3.97569e-016 0 -2.38542e-015
Head  -20.1724 9.81073 50.9133
R_Clavicle  1.03184 -2.76461 5.68481
R_UpperArm  39.0789 -73.6283 57.1042
R_Forearm  -43.4139 6.25699 -3.8837
R_Hand  -69.3742 50.6064 -126.136
L_Clavicle  -0.434507 13.0855 2.25029
L_UpperArm  -22.623 27.496 51.5781
L_Forearm  -39.8862 11.3705 13.4217
L_Hand  -0.36871 1.65422 -5.25453
L_Thigh  10.374 39.7419 68.7872
L_Calf  -17.6232 -6.35076 52.6775
L_Foot  5.36738 10.0966 9.77576
L_Toe0  0.505177 0.0348706 -6.13607
R_Thigh  24.6017 -46.2618 4.48609
R_Calf  -0.775732 10.787 35.8832
R_Foot  -9.35394 -23.1867 7.91711
R_Toe0  -1.78853 -0.272788 -17.3235
593
root  -22.9247 15.71 -33.4982 -51.9316 -33.5895 -24.3042
Spine  0.121595 -15.5629 5.56816
Spine1  -1.30856 -26.5116 15.0105
Neck  3.97569e-016 0 -2.38542e-015
Head  -22.29 11.7712 49.6751
R_Clavicle  1.1302 2.48848 5.39783
R_UpperArm  57.3079 -74.735 38.2952
R_Forearm  -31.3016 2.72077 0.717189
R_Hand  -70.1808 37.8382 -141.373
L_Clavicle  -0.203912 7.00347 0.100837
L_UpperArm  -34.677 29.6041 48.1574
L_Forearm  -34.9399 -1.23504 -1.43801
L_Hand  -0.500953 -1.14357 -12.9088
L_Thigh  9.1236 39.6125 64.4161
L_Calf  -18.1891 -6.22064 51.9508
L_Foot  5.98843 12.7027 9.0597
L_Toe0  0.505176 0.0348545 -6.13607
R_Thigh  24.0901 -44.2064 2.87215
R_Calf  -6.78026 10.3243 34.1157
R_Foot  -0.708418 -1.28985 2.43466
R_Toe0  -1.78853 -0.272788 -17.3235
594
root  -22.8725 16.8487 -30.9972 -65.8872 -24.0029 -20.6868
Spine  0.0426409 -14.6241 4.30124
Spine1  -0.953101 -24.9739 13.0496
Neck  3.97569e-016 0 -2.38542e-015
Head  -24.9563 13.0732 48.3764
R_Clavicle  0.930685 5.85551 4.20042
R_UpperArm  72.733 -71.6082 25.6451
R_Forearm  -7.90655 -1.2241 5.90715
R_Hand  -54.2301 21.4148 -148.592
L_Clavicle  0.0857175 3.59609 -1.63949
L_UpperArm  -49.97 27.7092 42.5767
L_Forearm  -24.2789 -11.5292 -13.6384
L_Hand  -0.0348235 -5.19546 -14.651
L_Thigh  8.61011 39.4139 61.2626
L_Calf  -19.2694 -5.65806 50.684
L_Foot  5.8719 13.1487 8.2759
L_Toe0  0.505176 0.0348387 -6.13607
R_Thigh  26.0781 -40.9732 0.801287
R_Calf  -14.1706 11.1458 37.4225
R_Foot  5.02693 16.8869 -0.330343
R_Toe0  -1.78853 -0.272788 -17.3235
595
root  -22.5238 18.2783 -28.8326 -79.2173 -14.4929 -19.0208
Spine  0.193602 -13.2414 4.23523
Spine1  -0.168045 -23.736 9.76257
Neck  3.97569e-016 0 -2.38542e-015
Head  -29.0602 13.5893 46.8691
R_Clavicle  1.01913 9.52334 4.38674
R_UpperArm  83.1618 -68.2794 19.3377
R_Forearm  24.4335 -2.9362 9.43611
R_Hand  -26.6191 5.43233 -149.493
L_Clavicle  0.164548 2.51225 -1.95256
L_UpperArm  -60.6702 22.3895 36.3177
L_Forearm  -11.0086 -21.5235 -27.1041
L_Hand  0.286077 -7.4241 -16.4747
L_Thigh  6.94121 40.3728 56.9044
L_Calf  -20.1025 -6.23423 50.171
L_Foot  5.26629 12.2892 7.2279
L_Toe0  0.505175 0.0348231 -6.13607
R_Thigh  23.9607 -38.6911 2.40572
R_Calf  -16.534 10.8467 36.2326
R_Foot  4.57756 15.3211 2.09249
R_Toe0  -1.78853 -0.272788 -17.3235
596
root  -21.7626 19.9552 -26.8736 -92.3379 -5.34074 -18.8138
Spine  0.353673 -11.4359 5.44968
Spine1  0.657713 -23.8736 5.94829
Neck  3.97569e-016 0 -2.38542e-015
Head  -34.7015 14.0801 44.5286
R_Clavicle  1.82893 14.6539 6.52168
R_UpperArm  90.3365 -65.2405 14.9508
R_Forearm  51.0782 -3.02689 10.7395
R_Hand  -2.64219 -6.19425 -145.872
L_Clavicle  0.265747 0.788721 -2.18678
L_UpperArm  -59.6552 15.2284 27.0395
L_Forearm  1.26905 -27.5038 -36.9634
L_Hand  0.538988 -8.84699 -17.6856
L_Thigh  4.8469 40.8342 51.148
L_Calf  -19.7986 -6.7806 50.6765
L_Foot  4.09326 11.3195 4.35698
L_Toe0  0.505174 0.0348078 -6.13607
R_Thigh  19.494 -37.7435 5.29292
R_Calf  -13.2935 10.277 34.0135
R_Foot  2.86423 10.0248 3.98988
R_Toe0  -1.78853 -0.272788 -17.3235
597
root  -20.5212 21.8532 -25.3421 -105.972 3.9072 -18.9916
Spine  0.171247 -9.96517 6.13846
Spine1  1.1217 -23.8301 1.8803
Neck  3.97569e-016 0 -2.38542e-015
Head  -39.5215 13.7267 41.6428
R_Clavicle  3.37218 17.1303 10.9078
R_UpperArm  91.947 -57.6213 15.05
R_Forearm  65.7964 -3.72037 11.5015
R_Hand  10.9938 -13.9345 -140.339
L_Clavicle  0.682999 -2.10602 -3.93718
L_UpperArm  -47.3052 9.47133 15.2034
L_Forearm  8.79459 -26.691 -35.4958
L_Hand  0.513212 -9.13289 -15.7838
L_Thigh  3.12072 41.2941 46.028
L_Calf  -18.4814 -6.97927 51.6808
L_Foot  2.14442 9.58388 -0.713694
L_Toe0  0.505173 0.0347927 -6.13607
R_Thigh  15.4965 -37.5945 7.69919
R_Calf  -11.0909 10.4508 34.6914
R_Foot  2.80777 9.8945 4.25379
R_Toe0  -1.78853 -0.272788 -17.3235
598
root  -19.0576 23.7745 -24.4856 -120.395 12.9804 -18.9424
Spine  -1.30607 -10.4972 6.42184
Spine1  0.736931 -20.2987 -3.17611
Neck  3.97569e-016 0 -2.38542e-015
Head  -39.6089 10.6401 38.5323
R_Clavicle  3.59916 18.9211 11.185
R_UpperArm  93.1648 -45.3022 13.3135
R_Forearm  73.2736 -5.32265 12.8836
R_Hand  17.1409 -18.7808 -134.255
L_Clavicle  1.24254 -2.96024 -6.97537
L_UpperArm  -35.4278 6.4693 6.03566
L_Forearm  3.25027 -17.9565 -21.9898
L_Hand  0.263806 -7.55323 -13.6945
L_Thigh  1.11318 43.321 41.3659
L_Calf  -18.0729 -7.70701 52.9225
L_Foot  0.447989 8.33194 -5.85128
L_Toe0  0.505173 0.0347779 -6.13608
R_Thigh  12.1583 -37.5016 9.89706
R_Calf  -10.5642 10.6827 35.6036
R_Foot  2.76518 9.80437 4.72395
R_Toe0  -1.78853 -0.272788 -17.3235
599
root  -17.6779 25.6315 -24.3468 -134.651 21.3915 -18.1256
Spine  -4.23821 -12.0918 8.40364
Spine1  -1.14287 -14.0075 -9.1095
Neck  3.97569e-016 0 -2.38542e-015
Head  -33.2507 5.78214 34.1141
R_Clavicle  2.42658 20.4055 7.66584
R_UpperArm  93.0647 -26.9246 8.68151
R_Forearm  75.5731 -8.40284 16.4583
R_Hand  18.5531 -21.1191 -128.673
L_Clavicle  1.25768 0.0951087 -8.99351
L_UpperArm  -32.3215 0.952279 -0.638118
L_Forearm  -12.2366 -2.57628 -2.99059
L_Hand  0.0798009 -6.04495 -15.6037
L_Thigh  -1.47411 45.9849 35.6827
L_Calf  -20.2242 -8.59648 54.0484
L_Foot  -0.513805 7.60028 -9.01157
L_Toe0  0.505172 0.0347634 -6.13608
R_Thigh  10.4689 -38.0944 11.3151
R_Calf  -7.88358 10.5012 34.8917
R_Foot  2.39114 8.74404 5.0848
R_Toe0  -1.78853 -0.272788 -17.3235
600
root  -16.6842 27.4288 -24.7889 -147.809 29.887 -16.767
Spine  -6.93836 -11.09 11.3982
Spine1  -3.78234 -10.5685 -13.8322
Neck  3.97569e-016 0 -2.38542e-015
Head  -23.2242 3.0496 27.4534
R_Clavicle  1.31549 21.3022 4.55523
R_UpperArm  88.2844 -9.61311 2.9923
R_Forearm  72.5757 -11.2026 20.7772
R_Hand  14.0804 -18.434 -125.351
L_Clavicle  1.04248 2.40921 -9.20126
L_UpperArm  -32.2029 -10.3128 -8.2293
L_Forearm  -26.7537 14.3485 17.1951
L_Hand  -0.0807338 -4.96451 -15.8117
L_Thigh  -4.50215 47.7544 29.8286
L_Calf  -23.6175 -9.6392 54.2604
L_Foot  -0.883525 5.77981 -9.26702
L_Toe0  0.505171 0.0347491 -6.13608
R_Thigh  9.84833 -40.768 12.2634
R_Calf  -4.90662 10.2682 33.9794
R_Foot  2.38735 8.69103 4.67579
R_Toe0  -1.78853 -0.272788 -17.3235
601
root  -16.2319 29.0498 -25.5905 -160.261 38.8471 -15.8263
Spine  -7.5416 -6.73962 13.3976
Spine1  -5.20509 -11.533 -16.2663
Neck  3.97569e-016 0 -2.38542e-015
Head  -13.8698 2.88148 19.8306
R_Clavicle  0.362172 22.4261 1.99626
R_UpperArm  81.7775 1.08559 -2.63519
R_Forearm  64.9642 -8.13577 19.7931
R_Hand  -1.1618 -6.92625 -123.93
L_Clavicle  1.0094 1.62542 -8.29789
L_UpperArm  -28.6983 -23.7192 -17.2786
L_Forearm  -39.9725 27.4254 36.5024
L_Hand  -0.234163 -2.66681 -10.3897
L_Thigh  -7.95663 47.8545 24.3242
L_Calf  -24.3647 -11.0837 53.8491
L_Foot  -1.0891 2.47532 -7.70322
L_Toe0  0.505171 0.0347351 -6.13608
R_Thigh  7.47965 -45.466 14.5057
R_Calf  -2.4166 10.2048 33.7234
R_Foot  1.86196 7.15592 4.66797
R_Toe0  -1.78853 -0.272788 -17.3235
602
root  -16.3717 30.3154 -26.6163 -171.81 47.8041 -14.7631
Spine  -5.96303 -1.3243 15.9614
Spine1  -4.78025 -13.576 -17.9103
Neck  3.97569e-016 0 -2.38542e-015
Head  -6.90894 2.8098 12.5897
R_Clavicle  -0.545751 26.7236 -0.195974
R_UpperArm  78.2654 7.7891 -7.85851
R_Forearm  63.0432 -5.22096 19.195
R_Hand  -11.4228 1.25555 -122.872
L_Clavicle  1.01515 -1.06957 -6.5681
L_UpperArm  -25.6431 -32.6654 -25.2082
L_Forearm  -56.1878 31.4424 43.9773
L_Hand  -0.0994323 -4.10768 -8.75591
L_Thigh  -10.7215 45.3564 18.6683
L_Calf  -19.7057 -11.5168 53.1249
L_Foot  -1.67659 -1.64032 -6.90214
L_Toe0  0.50517 0.0347213 -6.13608
R_Thigh  3.46617 -51.4631 18.223
R_Calf  3.12696 10.4649 34.7266
R_Foot  1.05433 4.94889 5.56689
R_Toe0  -1.78853 -0.272788 -17.3235
